<mxfile host="app.diagrams.net" modified="2023-08-08T06:42:22.820Z" agent="Mozilla/5.0 (Windows NT 10.0; Win64; x64) AppleWebKit/537.36 (KHTML, like Gecko) Chrome/115.0.0.0 Safari/537.36" etag="EeOBeQM4nPrUG5OqTRf9" version="21.6.6" type="github">
  <diagram name="Page-1" id="p2Ak9Vhbm4HKoaCR8iAv">
    <mxGraphModel dx="1335" dy="703" grid="1" gridSize="10" guides="1" tooltips="1" connect="1" arrows="1" fold="1" page="1" pageScale="1" pageWidth="850" pageHeight="1100" background="#ffffff" math="0" shadow="0">
      <root>
        <mxCell id="0" />
        <mxCell id="1" parent="0" />
        <mxCell id="hMKPiUpBBv4Qww10sRNi-3" value="" style="whiteSpace=wrap;html=1;hachureGap=4;fontFamily=Architects Daughter;fontSource=https%3A%2F%2Ffonts.googleapis.com%2Fcss%3Ffamily%3DArchitects%2BDaughter;fontSize=20;strokeColor=#36393d;fillColor=#cce5ff;rounded=0;glass=0;" vertex="1" parent="1">
          <mxGeometry x="39.5" y="170" width="240" height="370" as="geometry" />
        </mxCell>
        <mxCell id="hMKPiUpBBv4Qww10sRNi-29" style="edgeStyle=orthogonalEdgeStyle;rounded=0;sketch=1;hachureGap=4;jiggle=2;curveFitting=1;orthogonalLoop=1;jettySize=auto;html=1;entryX=0;entryY=0.5;entryDx=0;entryDy=0;fontFamily=Architects Daughter;fontSource=https%3A%2F%2Ffonts.googleapis.com%2Fcss%3Ffamily%3DArchitects%2BDaughter;fontSize=16;" edge="1" parent="1" source="hMKPiUpBBv4Qww10sRNi-4" target="hMKPiUpBBv4Qww10sRNi-22">
          <mxGeometry relative="1" as="geometry">
            <Array as="points">
              <mxPoint x="300" y="489" />
              <mxPoint x="300" y="240" />
            </Array>
          </mxGeometry>
        </mxCell>
        <mxCell id="hMKPiUpBBv4Qww10sRNi-4" value="&lt;b&gt;REVIEW&lt;/b&gt;" style="rounded=1;whiteSpace=wrap;html=1;sketch=1;hachureGap=4;jiggle=2;curveFitting=1;fontFamily=Architects Daughter;fontSource=https%3A%2F%2Ffonts.googleapis.com%2Fcss%3Ffamily%3DArchitects%2BDaughter;fontSize=20;" vertex="1" parent="1">
          <mxGeometry x="75" y="469" width="167" height="40" as="geometry" />
        </mxCell>
        <mxCell id="hMKPiUpBBv4Qww10sRNi-13" value="" style="edgeStyle=orthogonalEdgeStyle;rounded=0;sketch=1;hachureGap=4;jiggle=2;curveFitting=1;orthogonalLoop=1;jettySize=auto;html=1;fontFamily=Architects Daughter;fontSource=https%3A%2F%2Ffonts.googleapis.com%2Fcss%3Ffamily%3DArchitects%2BDaughter;fontSize=16;" edge="1" parent="1" source="hMKPiUpBBv4Qww10sRNi-5" target="hMKPiUpBBv4Qww10sRNi-4">
          <mxGeometry relative="1" as="geometry" />
        </mxCell>
        <mxCell id="hMKPiUpBBv4Qww10sRNi-5" value="&lt;b&gt;TESTING&lt;/b&gt;" style="rounded=1;whiteSpace=wrap;html=1;sketch=1;hachureGap=4;jiggle=2;curveFitting=1;fontFamily=Architects Daughter;fontSource=https%3A%2F%2Ffonts.googleapis.com%2Fcss%3Ffamily%3DArchitects%2BDaughter;fontSize=20;" vertex="1" parent="1">
          <mxGeometry x="75" y="386" width="167" height="40" as="geometry" />
        </mxCell>
        <mxCell id="hMKPiUpBBv4Qww10sRNi-12" value="" style="edgeStyle=orthogonalEdgeStyle;rounded=0;sketch=1;hachureGap=4;jiggle=2;curveFitting=1;orthogonalLoop=1;jettySize=auto;html=1;fontFamily=Architects Daughter;fontSource=https%3A%2F%2Ffonts.googleapis.com%2Fcss%3Ffamily%3DArchitects%2BDaughter;fontSize=16;" edge="1" parent="1">
          <mxGeometry relative="1" as="geometry">
            <mxPoint x="162" y="340" as="sourcePoint" />
            <mxPoint x="162" y="386" as="targetPoint" />
            <Array as="points">
              <mxPoint x="162" y="350" />
              <mxPoint x="162" y="350" />
            </Array>
          </mxGeometry>
        </mxCell>
        <mxCell id="hMKPiUpBBv4Qww10sRNi-6" value="&lt;b&gt;DEVELOPEMENT&lt;/b&gt;" style="rounded=1;whiteSpace=wrap;html=1;sketch=1;hachureGap=4;jiggle=2;curveFitting=1;fontFamily=Architects Daughter;fontSource=https%3A%2F%2Ffonts.googleapis.com%2Fcss%3Ffamily%3DArchitects%2BDaughter;fontSize=20;" vertex="1" parent="1">
          <mxGeometry x="77" y="300" width="165" height="40" as="geometry" />
        </mxCell>
        <mxCell id="hMKPiUpBBv4Qww10sRNi-10" value="" style="edgeStyle=orthogonalEdgeStyle;rounded=0;sketch=1;hachureGap=4;jiggle=2;curveFitting=1;orthogonalLoop=1;jettySize=auto;html=1;fontFamily=Architects Daughter;fontSource=https%3A%2F%2Ffonts.googleapis.com%2Fcss%3Ffamily%3DArchitects%2BDaughter;fontSize=16;" edge="1" parent="1" source="hMKPiUpBBv4Qww10sRNi-9" target="hMKPiUpBBv4Qww10sRNi-6">
          <mxGeometry relative="1" as="geometry" />
        </mxCell>
        <mxCell id="hMKPiUpBBv4Qww10sRNi-9" value="&lt;b&gt;DESIGN&lt;/b&gt;" style="rounded=1;whiteSpace=wrap;html=1;sketch=1;hachureGap=4;jiggle=2;curveFitting=1;fontFamily=Architects Daughter;fontSource=https%3A%2F%2Ffonts.googleapis.com%2Fcss%3Ffamily%3DArchitects%2BDaughter;fontSize=20;" vertex="1" parent="1">
          <mxGeometry x="77" y="219" width="165" height="40" as="geometry" />
        </mxCell>
        <mxCell id="hMKPiUpBBv4Qww10sRNi-14" value="&lt;font style=&quot;&quot;&gt;&lt;b style=&quot;&quot;&gt;&lt;font style=&quot;font-size: 14px;&quot;&gt;itteration &lt;/font&gt;&lt;span style=&quot;font-size: 18px;&quot;&gt;1&lt;/span&gt;&lt;/b&gt;&lt;/font&gt;" style="text;html=1;strokeColor=none;fillColor=none;align=center;verticalAlign=middle;whiteSpace=wrap;rounded=0;fontSize=20;fontFamily=Architects Daughter;" vertex="1" parent="1">
          <mxGeometry x="56" y="177" width="70" height="30" as="geometry" />
        </mxCell>
        <mxCell id="hMKPiUpBBv4Qww10sRNi-15" value="" style="whiteSpace=wrap;html=1;hachureGap=4;fontFamily=Architects Daughter;fontSource=https%3A%2F%2Ffonts.googleapis.com%2Fcss%3Ffamily%3DArchitects%2BDaughter;fontSize=20;strokeColor=#36393d;fillColor=#cce5ff;rounded=0;glass=0;" vertex="1" parent="1">
          <mxGeometry x="353.5" y="170" width="240" height="370" as="geometry" />
        </mxCell>
        <mxCell id="hMKPiUpBBv4Qww10sRNi-51" style="edgeStyle=orthogonalEdgeStyle;rounded=0;sketch=1;hachureGap=4;jiggle=2;curveFitting=1;orthogonalLoop=1;jettySize=auto;html=1;entryX=0;entryY=0.5;entryDx=0;entryDy=0;fontFamily=Architects Daughter;fontSource=https%3A%2F%2Ffonts.googleapis.com%2Fcss%3Ffamily%3DArchitects%2BDaughter;fontSize=16;" edge="1" parent="1" source="hMKPiUpBBv4Qww10sRNi-16" target="hMKPiUpBBv4Qww10sRNi-47">
          <mxGeometry relative="1" as="geometry" />
        </mxCell>
        <mxCell id="hMKPiUpBBv4Qww10sRNi-16" value="&lt;b&gt;REVIEW&lt;/b&gt;" style="rounded=1;whiteSpace=wrap;html=1;sketch=1;hachureGap=4;jiggle=2;curveFitting=1;fontFamily=Architects Daughter;fontSource=https%3A%2F%2Ffonts.googleapis.com%2Fcss%3Ffamily%3DArchitects%2BDaughter;fontSize=20;" vertex="1" parent="1">
          <mxGeometry x="390" y="469" width="167" height="40" as="geometry" />
        </mxCell>
        <mxCell id="hMKPiUpBBv4Qww10sRNi-17" value="" style="edgeStyle=orthogonalEdgeStyle;rounded=0;sketch=1;hachureGap=4;jiggle=2;curveFitting=1;orthogonalLoop=1;jettySize=auto;html=1;fontFamily=Architects Daughter;fontSource=https%3A%2F%2Ffonts.googleapis.com%2Fcss%3Ffamily%3DArchitects%2BDaughter;fontSize=16;" edge="1" parent="1" source="hMKPiUpBBv4Qww10sRNi-18" target="hMKPiUpBBv4Qww10sRNi-16">
          <mxGeometry relative="1" as="geometry" />
        </mxCell>
        <mxCell id="hMKPiUpBBv4Qww10sRNi-18" value="&lt;b&gt;TESTING&lt;/b&gt;" style="rounded=1;whiteSpace=wrap;html=1;sketch=1;hachureGap=4;jiggle=2;curveFitting=1;fontFamily=Architects Daughter;fontSource=https%3A%2F%2Ffonts.googleapis.com%2Fcss%3Ffamily%3DArchitects%2BDaughter;fontSize=20;" vertex="1" parent="1">
          <mxGeometry x="390" y="386" width="167" height="40" as="geometry" />
        </mxCell>
        <mxCell id="hMKPiUpBBv4Qww10sRNi-19" value="" style="edgeStyle=orthogonalEdgeStyle;rounded=0;sketch=1;hachureGap=4;jiggle=2;curveFitting=1;orthogonalLoop=1;jettySize=auto;html=1;fontFamily=Architects Daughter;fontSource=https%3A%2F%2Ffonts.googleapis.com%2Fcss%3Ffamily%3DArchitects%2BDaughter;fontSize=16;" edge="1" parent="1" source="hMKPiUpBBv4Qww10sRNi-20" target="hMKPiUpBBv4Qww10sRNi-18">
          <mxGeometry relative="1" as="geometry">
            <Array as="points">
              <mxPoint x="474" y="350" />
              <mxPoint x="474" y="350" />
            </Array>
          </mxGeometry>
        </mxCell>
        <mxCell id="hMKPiUpBBv4Qww10sRNi-20" value="&lt;b&gt;DEVELOPEMENT&lt;/b&gt;" style="rounded=1;whiteSpace=wrap;html=1;sketch=1;hachureGap=4;jiggle=2;curveFitting=1;fontFamily=Architects Daughter;fontSource=https%3A%2F%2Ffonts.googleapis.com%2Fcss%3Ffamily%3DArchitects%2BDaughter;fontSize=20;" vertex="1" parent="1">
          <mxGeometry x="392" y="300" width="165" height="40" as="geometry" />
        </mxCell>
        <mxCell id="hMKPiUpBBv4Qww10sRNi-21" value="" style="edgeStyle=orthogonalEdgeStyle;rounded=0;sketch=1;hachureGap=4;jiggle=2;curveFitting=1;orthogonalLoop=1;jettySize=auto;html=1;fontFamily=Architects Daughter;fontSource=https%3A%2F%2Ffonts.googleapis.com%2Fcss%3Ffamily%3DArchitects%2BDaughter;fontSize=16;" edge="1" parent="1" source="hMKPiUpBBv4Qww10sRNi-22" target="hMKPiUpBBv4Qww10sRNi-20">
          <mxGeometry relative="1" as="geometry" />
        </mxCell>
        <mxCell id="hMKPiUpBBv4Qww10sRNi-22" value="&lt;b&gt;DESIGN&lt;/b&gt;" style="rounded=1;whiteSpace=wrap;html=1;sketch=1;hachureGap=4;jiggle=2;curveFitting=1;fontFamily=Architects Daughter;fontSource=https%3A%2F%2Ffonts.googleapis.com%2Fcss%3Ffamily%3DArchitects%2BDaughter;fontSize=20;" vertex="1" parent="1">
          <mxGeometry x="392" y="219" width="165" height="40" as="geometry" />
        </mxCell>
        <mxCell id="hMKPiUpBBv4Qww10sRNi-31" value="" style="whiteSpace=wrap;html=1;hachureGap=4;fontFamily=Architects Daughter;fontSource=https%3A%2F%2Ffonts.googleapis.com%2Fcss%3Ffamily%3DArchitects%2BDaughter;fontSize=20;strokeColor=#36393d;fillColor=#cce5ff;rounded=0;glass=0;" vertex="1" parent="1">
          <mxGeometry x="680" y="170" width="240" height="370" as="geometry" />
        </mxCell>
        <mxCell id="hMKPiUpBBv4Qww10sRNi-58" style="edgeStyle=orthogonalEdgeStyle;rounded=0;sketch=1;hachureGap=4;jiggle=2;curveFitting=1;orthogonalLoop=1;jettySize=auto;html=1;entryX=0.5;entryY=0;entryDx=0;entryDy=0;fontFamily=Architects Daughter;fontSource=https%3A%2F%2Ffonts.googleapis.com%2Fcss%3Ffamily%3DArchitects%2BDaughter;fontSize=16;" edge="1" parent="1" source="hMKPiUpBBv4Qww10sRNi-41" target="hMKPiUpBBv4Qww10sRNi-56">
          <mxGeometry relative="1" as="geometry" />
        </mxCell>
        <mxCell id="hMKPiUpBBv4Qww10sRNi-41" value="&lt;b&gt;REVIEW&lt;/b&gt;" style="rounded=1;whiteSpace=wrap;html=1;sketch=1;hachureGap=4;jiggle=2;curveFitting=1;fontFamily=Architects Daughter;fontSource=https%3A%2F%2Ffonts.googleapis.com%2Fcss%3Ffamily%3DArchitects%2BDaughter;fontSize=20;" vertex="1" parent="1">
          <mxGeometry x="730" y="457" width="167" height="40" as="geometry" />
        </mxCell>
        <mxCell id="hMKPiUpBBv4Qww10sRNi-42" value="" style="edgeStyle=orthogonalEdgeStyle;rounded=0;sketch=1;hachureGap=4;jiggle=2;curveFitting=1;orthogonalLoop=1;jettySize=auto;html=1;fontFamily=Architects Daughter;fontSource=https%3A%2F%2Ffonts.googleapis.com%2Fcss%3Ffamily%3DArchitects%2BDaughter;fontSize=16;" edge="1" parent="1" source="hMKPiUpBBv4Qww10sRNi-43" target="hMKPiUpBBv4Qww10sRNi-41">
          <mxGeometry relative="1" as="geometry" />
        </mxCell>
        <mxCell id="hMKPiUpBBv4Qww10sRNi-43" value="&lt;b&gt;TESTING&lt;/b&gt;" style="rounded=1;whiteSpace=wrap;html=1;sketch=1;hachureGap=4;jiggle=2;curveFitting=1;fontFamily=Architects Daughter;fontSource=https%3A%2F%2Ffonts.googleapis.com%2Fcss%3Ffamily%3DArchitects%2BDaughter;fontSize=20;" vertex="1" parent="1">
          <mxGeometry x="730" y="374" width="167" height="40" as="geometry" />
        </mxCell>
        <mxCell id="hMKPiUpBBv4Qww10sRNi-44" value="" style="edgeStyle=orthogonalEdgeStyle;rounded=0;sketch=1;hachureGap=4;jiggle=2;curveFitting=1;orthogonalLoop=1;jettySize=auto;html=1;fontFamily=Architects Daughter;fontSource=https%3A%2F%2Ffonts.googleapis.com%2Fcss%3Ffamily%3DArchitects%2BDaughter;fontSize=16;" edge="1" parent="1" source="hMKPiUpBBv4Qww10sRNi-45" target="hMKPiUpBBv4Qww10sRNi-43">
          <mxGeometry relative="1" as="geometry">
            <Array as="points">
              <mxPoint x="814" y="338" />
              <mxPoint x="814" y="338" />
            </Array>
          </mxGeometry>
        </mxCell>
        <mxCell id="hMKPiUpBBv4Qww10sRNi-45" value="&lt;b&gt;DEVELOPEMENT&lt;/b&gt;" style="rounded=1;whiteSpace=wrap;html=1;sketch=1;hachureGap=4;jiggle=2;curveFitting=1;fontFamily=Architects Daughter;fontSource=https%3A%2F%2Ffonts.googleapis.com%2Fcss%3Ffamily%3DArchitects%2BDaughter;fontSize=20;" vertex="1" parent="1">
          <mxGeometry x="732" y="288" width="165" height="40" as="geometry" />
        </mxCell>
        <mxCell id="hMKPiUpBBv4Qww10sRNi-46" value="" style="edgeStyle=orthogonalEdgeStyle;rounded=0;sketch=1;hachureGap=4;jiggle=2;curveFitting=1;orthogonalLoop=1;jettySize=auto;html=1;fontFamily=Architects Daughter;fontSource=https%3A%2F%2Ffonts.googleapis.com%2Fcss%3Ffamily%3DArchitects%2BDaughter;fontSize=16;" edge="1" parent="1" source="hMKPiUpBBv4Qww10sRNi-47" target="hMKPiUpBBv4Qww10sRNi-45">
          <mxGeometry relative="1" as="geometry" />
        </mxCell>
        <mxCell id="hMKPiUpBBv4Qww10sRNi-47" value="&lt;b&gt;DESIGN&lt;/b&gt;" style="rounded=1;whiteSpace=wrap;html=1;sketch=1;hachureGap=4;jiggle=2;curveFitting=1;fontFamily=Architects Daughter;fontSource=https%3A%2F%2Ffonts.googleapis.com%2Fcss%3Ffamily%3DArchitects%2BDaughter;fontSize=20;" vertex="1" parent="1">
          <mxGeometry x="732" y="207" width="165" height="40" as="geometry" />
        </mxCell>
        <mxCell id="hMKPiUpBBv4Qww10sRNi-49" value="&lt;font style=&quot;font-size: 14px;&quot;&gt;&lt;b&gt;itteration 2&lt;/b&gt;&lt;/font&gt;" style="text;html=1;strokeColor=none;fillColor=none;align=center;verticalAlign=middle;whiteSpace=wrap;rounded=0;fontSize=20;fontFamily=Architects Daughter;" vertex="1" parent="1">
          <mxGeometry x="370" y="177" width="90" height="30" as="geometry" />
        </mxCell>
        <mxCell id="hMKPiUpBBv4Qww10sRNi-50" value="&lt;font style=&quot;font-size: 14px;&quot;&gt;&lt;b style=&quot;&quot;&gt;itteration N&lt;/b&gt;&lt;/font&gt;" style="text;html=1;strokeColor=none;fillColor=none;align=center;verticalAlign=middle;whiteSpace=wrap;rounded=0;fontSize=20;fontFamily=Architects Daughter;" vertex="1" parent="1">
          <mxGeometry x="700" y="170" width="90" height="30" as="geometry" />
        </mxCell>
        <mxCell id="hMKPiUpBBv4Qww10sRNi-55" style="edgeStyle=orthogonalEdgeStyle;rounded=0;sketch=1;hachureGap=4;jiggle=2;curveFitting=1;orthogonalLoop=1;jettySize=auto;html=1;entryX=0.5;entryY=0;entryDx=0;entryDy=0;fontFamily=Architects Daughter;fontSource=https%3A%2F%2Ffonts.googleapis.com%2Fcss%3Ffamily%3DArchitects%2BDaughter;fontSize=16;" edge="1" parent="1" source="hMKPiUpBBv4Qww10sRNi-52" target="hMKPiUpBBv4Qww10sRNi-9">
          <mxGeometry relative="1" as="geometry" />
        </mxCell>
        <mxCell id="hMKPiUpBBv4Qww10sRNi-52" value="&lt;b&gt;ANALYSIS&lt;/b&gt;" style="rounded=1;whiteSpace=wrap;html=1;sketch=1;hachureGap=4;jiggle=2;curveFitting=1;fontFamily=Architects Daughter;fontSource=https%3A%2F%2Ffonts.googleapis.com%2Fcss%3Ffamily%3DArchitects%2BDaughter;fontSize=20;" vertex="1" parent="1">
          <mxGeometry x="76" y="100" width="165" height="40" as="geometry" />
        </mxCell>
        <mxCell id="hMKPiUpBBv4Qww10sRNi-54" value="" style="edgeStyle=orthogonalEdgeStyle;rounded=0;sketch=1;hachureGap=4;jiggle=2;curveFitting=1;orthogonalLoop=1;jettySize=auto;html=1;fontFamily=Architects Daughter;fontSource=https%3A%2F%2Ffonts.googleapis.com%2Fcss%3Ffamily%3DArchitects%2BDaughter;fontSize=16;" edge="1" parent="1">
          <mxGeometry relative="1" as="geometry">
            <mxPoint x="159.5" y="60" as="sourcePoint" />
            <mxPoint x="158.5" y="100" as="targetPoint" />
          </mxGeometry>
        </mxCell>
        <mxCell id="hMKPiUpBBv4Qww10sRNi-53" value="&lt;b&gt;REQUIREMENTS&lt;/b&gt;" style="rounded=1;whiteSpace=wrap;html=1;sketch=1;hachureGap=4;jiggle=2;curveFitting=1;fontFamily=Architects Daughter;fontSource=https%3A%2F%2Ffonts.googleapis.com%2Fcss%3Ffamily%3DArchitects%2BDaughter;fontSize=20;" vertex="1" parent="1">
          <mxGeometry x="77" y="20" width="165" height="40" as="geometry" />
        </mxCell>
        <mxCell id="hMKPiUpBBv4Qww10sRNi-61" style="edgeStyle=orthogonalEdgeStyle;rounded=0;sketch=1;hachureGap=4;jiggle=2;curveFitting=1;orthogonalLoop=1;jettySize=auto;html=1;entryX=0.5;entryY=0;entryDx=0;entryDy=0;fontFamily=Architects Daughter;fontSource=https%3A%2F%2Ffonts.googleapis.com%2Fcss%3Ffamily%3DArchitects%2BDaughter;fontSize=16;" edge="1" parent="1" source="hMKPiUpBBv4Qww10sRNi-56" target="hMKPiUpBBv4Qww10sRNi-57">
          <mxGeometry relative="1" as="geometry" />
        </mxCell>
        <mxCell id="hMKPiUpBBv4Qww10sRNi-56" value="&lt;b&gt;DEPLOYMENT&lt;/b&gt;" style="rounded=1;whiteSpace=wrap;html=1;sketch=1;hachureGap=4;jiggle=2;curveFitting=1;fontFamily=Architects Daughter;fontSource=https%3A%2F%2Ffonts.googleapis.com%2Fcss%3Ffamily%3DArchitects%2BDaughter;fontSize=20;" vertex="1" parent="1">
          <mxGeometry x="730" y="570" width="167" height="40" as="geometry" />
        </mxCell>
        <mxCell id="hMKPiUpBBv4Qww10sRNi-57" value="&lt;b&gt;MAINTAINANCE&lt;/b&gt;" style="rounded=1;whiteSpace=wrap;html=1;sketch=1;hachureGap=4;jiggle=2;curveFitting=1;fontFamily=Architects Daughter;fontSource=https%3A%2F%2Ffonts.googleapis.com%2Fcss%3Ffamily%3DArchitects%2BDaughter;fontSize=20;" vertex="1" parent="1">
          <mxGeometry x="732" y="666" width="167" height="40" as="geometry" />
        </mxCell>
      </root>
    </mxGraphModel>
  </diagram>
</mxfile>
